<svg xmlns="http://www.w3.org/2000/svg" width="980" height="626" viewBox="0 0 980 626">
<rect width="100%" height="100%" rx="24" fill="#0b1220"/>
<style>.title{font:700 25px -apple-system,BlinkMacSystemFont,sans-serif;fill:#f8fafc}.sub{font:14px sans-serif;fill:#94a3b8}.label{font:16px sans-serif;fill:#e2e8f0}.value{font:600 15px monospace;fill:#cbd5e1}.axis{stroke:#475569;stroke-width:1}</style>
<text x="30" y="42" class="title">One Chart · Daily Market Pulse</text>
<text x="30" y="68" class="sub">2026-07-24 · 最近交易日涨跌幅，方向信号不构成投资建议</text>
<line x1="490" y1="86" x2="490" y2="602" class="axis"/>
<text x="30" y="112" class="label">Nasdaq</text><rect x="427.5" y="89" width="62.5" height="28" rx="6" fill="#dc2626"/><text x="130" y="112" class="value">-2.15%</text><text x="30" y="174" class="label">黄金</text><rect x="423.4" y="151" width="66.6" height="28" rx="6" fill="#dc2626"/><text x="130" y="174" class="value">-2.29%</text><text x="30" y="236" class="label">原油</text><rect x="490.0" y="213" width="177.1" height="28" rx="6" fill="#16a34a"/><text x="850" y="236" class="value">+6.09%</text><text x="30" y="298" class="label">美元指数</text><rect x="490.0" y="275" width="8.4" height="28" rx="6" fill="#16a34a"/><text x="850" y="298" class="value">+0.29%</text><text x="30" y="360" class="label">十年美债收益率</text><rect x="490.0" y="337" width="28.8" height="28" rx="6" fill="#16a34a"/><text x="850" y="360" class="value">+0.99%</text><text x="30" y="422" class="label">BTC</text><rect x="447.5" y="399" width="42.5" height="28" rx="6" fill="#dc2626"/><text x="130" y="422" class="value">-1.46%</text><text x="30" y="484" class="label">VIX</text><rect x="490.0" y="461" width="360.0" height="28" rx="6" fill="#16a34a"/><text x="850" y="484" class="value">+12.38%</text><text x="30" y="546" class="label">NVIDIA</text><rect x="444.6" y="523" width="45.4" height="28" rx="6" fill="#dc2626"/><text x="130" y="546" class="value">-1.56%</text>
</svg>